ffprobe version n2.6.1 Copyright (c) 2007-2015 the FFmpeg developers
  built with gcc 4.8 (Ubuntu 4.8.2-19ubuntu1)
  configuration: --prefix=/opt/ffmpeg --extra-cflags=-I/opt/ffmpeg/include --extra-ldflags=-L/opt/ffmpeg/lib --extra-libs=-ldl --enable-gpl --enable-libass --enable-libfdk-aac --enable-libfreetype --enable-libmp3lame --enable-libtheora --enable-libvorbis --enable-libvpx --enable-libx264 --enable-libx265 --enable-nonfree
  libavutil      54. 20.100 / 54. 20.100
  libavcodec     56. 26.100 / 56. 26.100
  libavformat    56. 25.101 / 56. 25.101
  libavdevice    56.  4.100 / 56.  4.100
  libavfilter     5. 11.102 /  5. 11.102
  libswscale      3.  1.101 /  3.  1.101
  libswresample   1.  1.100 /  1.  1.100
  libpostproc    53.  3.100 / 53.  3.100
[aac @ 0x268fa60] This stream seems to incorrectly report its last channel as LFE[3], mapping to LFE[0]
Input #0, matroska,webm, from 'ElephantsDream_720p_DivXPlus.mkv':
  Metadata:
    encoder         : libebml v0.7.7 + libmatroska v0.8.1
    creation_time   : 2009-10-06 22:31:25
    TITLE           : Elephants Dream
    TITLE/URL       : http://www.elephantsdream.org
    ARTIST          : Orange Open Movie Team
    PRODUCER        : Ton Roosendaal
    COPYRIGHT       : Copyright 2006, Blender Foundation / Netherlands Media Art Institute / www.elephantsdream.org
    TERMS_OF_USE    : Creative Commons Attribution 2.5 Generic License
    TERMS_OF_USE/URL: http://creativecommons.org/licenses/by/2.5/
    COMMENT         : Encoded in DivX 7
  Duration: 00:10:58.15, start: 0.000000, bitrate: 2470 kb/s
    Chapter #0:0: start 0.000000, end 27.250000
    Metadata:
      title           : Prólogo
    Chapter #0:1: start 27.250000, end 69.708000
    Metadata:
      title           : Trampa en la centralita
    Chapter #0:2: start 69.708000, end 224.000000
    Metadata:
      title           : Teléfono / Conferencia
    Chapter #0:3: start 224.000000, end 292.458000
    Metadata:
      title           : Máquina de escribir
    Chapter #0:4: start 292.458000, end 387.292000
    Metadata:
      title           : Proog muestra cosas a Emo
    Chapter #0:5: start 387.292000, end 428.500000
    Metadata:
      title           : Por dónde
    Chapter #0:6: start 428.500000, end 461.500000
    Metadata:
      title           : Emo se vuelve majara
    Chapter #0:7: start 461.500000, end 565.833000
    Metadata:
      title           : Emo crea
    Stream #0:0(eng): Video: h264 (High), yuv420p, 1280x720, SAR 1:1 DAR 16:9, 24 fps, 24 tbr, 1k tbn, 48 tbc (default)
    Metadata:
      title           : Main title
    Stream #0:1(eng): Audio: aac (LC), 48000 Hz, 5.1, fltp (default)
    Metadata:
      title           : English 5.1 Surround
    Stream #0:2(eng): Subtitle: subrip
    Metadata:
      title           : English
    Stream #0:3(fre): Subtitle: subrip
    Metadata:
      title           : French
    Stream #0:4(ger): Subtitle: subrip
    Metadata:
      title           : German
    Stream #0:5(ita): Subtitle: subrip
    Metadata:
      title           : Italian
    Stream #0:6(pol): Subtitle: subrip
    Metadata:
      title           : Polish
    Stream #0:7(rus): Subtitle: subrip
    Metadata:
      title           : Russian
    Stream #0:8(spa): Subtitle: subrip
    Metadata:
      title           : Spanish
